<?xml version="1.0" encoding="UTF-8"?><svg id="Layer_1" xmlns="http://www.w3.org/2000/svg" width="434" height="418" xmlns:xlink="http://www.w3.org/1999/xlink" viewBox="0 0 434 418"><defs><style>.cls-1{fill:#ffb392;}.cls-1,.cls-2{stroke-width:0px;}.cls-2{fill:url(#radial-gradient);}</style><radialGradient id="radial-gradient" cx="216.59" cy="208.99" fx="216.59" fy="208.99" r="196.73" gradientUnits="userSpaceOnUse"><stop offset="0" stop-color="#aa6d00"/><stop offset=".24" stop-color="#a86900"/><stop offset=".46" stop-color="#a35e00"/><stop offset=".67" stop-color="#9a4c00"/><stop offset=".88" stop-color="#8e3200"/><stop offset="1" stop-color="#851f00"/></radialGradient></defs><rect class="cls-1" y=".68" width="434" height="417.34" rx="93.11" ry="93.11"/><path class="cls-2" d="m424.84,232.94c-25.85,4.56-50.61,15.15-71.76,30.68-4.24,3.12-8.46,6.57-10.88,11.24-2.41,4.68-2.59,10.88.89,14.83-10.2-3.84-18.88-4.66-24.48-4.77-7.65-.14-14.89-.28-22.26,4.17-2.32,1.41-8.66,5.23-11.13,12.52-2.78,8.22.97,15.95,4.17,22.26,7.57,14.95,19.94,23.49,27.83,27.83-17.59-1.96-44.77-7.58-72.36-25.05-8.75-5.54-16.21-11.42-22.47-17.12-.71,11.17-.81,23.98.38,38.03,1.1,13.09,3.1,24.87,5.4,35.08-3.6,3.6-7.19,7.19-10.8,10.8-.82-27.18-1.64-54.37-2.48-81.54-6.08,6.64-13.64,13.69-22.9,20.32-31.21,22.31-63.69,26.81-80.71,27.83,8.15-6.72,21.58-19.13,29.22-34.79,3.27-6.69,4.43-11.84,2.78-16.7-1.71-5.04-5.84-7.97-8.35-9.74-6.75-4.77-13.72-5.36-16.7-5.57-12.15-.85-21.36,4.66-24.84,7.01,3.24-4.16,2.69-10.34-.01-14.86-2.69-4.52-7.11-7.71-11.54-10.56-22.07-14.21-47.44-23.27-73.5-26.24,20.47,1.71,41.34-1.46,60.39-9.18,7.64-3.1,15.86-8.03,17.27-16.16,1.28-7.31-3.53-14.25-8.81-19.45-9.56-9.45-21.53-16.42-34.45-20.08,10.83,2,21.92-5.68,26.09-15.88,4.17-10.2,2.45-22.04-2.14-32.06-1.98-4.3-4.47-8.32-7.21-12.18.01-.01.03-.03.04-.04.21-.01.43-.04.64-.07,8.45,8.72,18.22,15.67,30.04,16.41.14-2.49.32-5.07.57-7.72.29-3.01.63-5.91,1.02-8.7,1.93,4.22,5.37,10.41,11.29,16.53,7.07,7.29,14.36,10.69,16.99,12.2,9.59,5.54,21.86,9.45,31.38,3.81,7.28-4.3,10.78-13.23,10.83-21.68.04-8.45-2.81-16.61-5.62-24.57-1.31-3.69-2.88-7.64-5.19-10.73,5.96,1.98,13.57.04,17.41-5.2,5.55-7.58,3.48-19.02-3.12-25.7,5.62,5,14.19,5.86,21.23,3.2,7.04-2.66,12.59-8.4,16.24-15,5.08-9.21,6.6-19.66,6.78-30.28v-.65c.01-.32.01-.63.01-.93.01-.01.03,0,.04,0,.92,10.1,3.12,19.95,8.52,28.44,4.02,6.36,9.92,11.76,17.12,13.98,7.19,2.23,15.7.83,21-4.49-6.18,7.07-7.54,18.62-1.54,25.85,4.16,5.01,11.88,6.46,17.71,4.12-2.14,3.23-3.45,7.28-4.54,11.03-2.32,8.11-4.68,16.43-4.12,24.87.57,8.43,4.61,17.13,12.13,20.98,11.19,5.73,24.78-2.05,31.09-5.72,15.1-8.79,22.15-22.65,25.1-29.81,1.02,2.06,2.12,4.75,2.91,8,.71,2.94.97,5.55,1.04,7.68,13.01-1.63,23.06-10.66,31.45-21.22.03.03.06.04.08.06-3.26,4.94-6.18,10.09-8.32,15.61-3.97,10.28-4.95,22.21-.17,32.13,4.79,9.92,16.32,16.92,27.01,14.26-12.68,4.44-24.2,12.13-33.16,22.14-4.94,5.52-9.32,12.75-7.61,19.95,1.91,8.02,10.41,12.44,18.23,15.07,19.48,6.55,40.51,8.45,60.85,5.48Z"/></svg>